<svg height="15pt" viewBox="0 0 512 512" width="15pt" xmlns="http://www.w3.org/2000/svg"><path d="m255.996094 0c-141.160156 0-255.996094 114.839844-255.996094 256s114.835938 256 255.996094 256 256.003906-114.839844 256.003906-256-114.84375-256-256.003906-256zm0 0" fill="#f5f6fa"/><path d="m255.996094 0v512c141.160156 0 256.003906-114.839844 256.003906-256s-114.84375-256-256.003906-256zm0 0" fill="#c1d7f7"/><path d="m377.96875 212.652344c8.351562 0 15.121094-6.769532 15.121094-15.121094s-6.769532-15.121094-15.121094-15.121094h-73.765625c-8.351563 0-14.9375 7.230469-14.9375 15.582032v311.847656c10.285156-1.339844 20.378906-3.289063 30.242187-5.816406v-291.371094zm0 0" fill="#ff75b6"/><path d="m134.03125 303.378906c-8.351562 0-15.121094 6.769532-15.121094 15.121094s6.769532 15.121094 15.121094 15.121094h70.261719c8.351562 0 15.417969-6.675782 15.417969-15.023438v-316.011718c-10.289063 1.464843-20.382813 3.542968-30.242188 6.199218v294.59375zm0 0" fill="#ff75b6"/><path d="m324.320312 82.320312-79.898437 66.621094c-3.4375 2.875-5.558594 7.125-5.558594 11.609375v191.894531l-56.546875 30.617188c-7.34375 3.96875-10.019531 13.144531-6.046875 20.492188 2.734375 5.0625 7.972657 7.9375 13.347657 7.9375 2.429687 0 4.90625-.585938 7.191406-1.820313l64.488281-34.90625c4.886719-2.640625 7.808594-7.75 7.808594-13.304687v-193.839844l74.46875-62.089844c6.410156-5.351562 7.398437-14.886719 2.046875-21.296875-5.355469-6.410156-14.894532-7.265625-21.300782-1.914063zm0 0" fill="#f99d4b"/><path d="m366.890625 376.777344c-8.351563 0-15.121094 6.769531-15.121094 15.121094v101.5c10.4375-4.226563 20.535157-9.117188 30.242188-14.628907v-86.871093c0-8.351563-6.773438-15.121094-15.121094-15.121094zm0 0" fill="#f99d4b"/><path d="m415.277344 356.613281c-8.351563 0-15.121094 6.769531-15.121094 15.121094v95.707031c10.691406-7.3125 20.796875-15.417968 30.242188-24.222656v-71.484375c0-8.351563-6.769532-15.121094-15.121094-15.121094zm0 0" fill="#ff75b6"/><path d="m145.109375 123.878906c8.351563 0 15.121094-6.773437 15.121094-15.121094v-90.160156c-10.4375 4.226563-20.535157 9.117188-30.242188 14.628906v75.53125c0 8.347657 6.773438 15.121094 15.121094 15.121094zm0 0" fill="#f99d4b"/><path d="m96.722656 144.039062c8.351563 0 15.121094-6.769531 15.121094-15.121093v-84.359375c-10.691406 7.308594-20.796875 15.414062-30.242188 24.21875v60.140625c0 8.351562 6.769532 15.121093 15.121094 15.121093zm0 0" fill="#ff75b6"/><path d="m154.542969 205.597656c0-8.351562-6.769531-15.121094-15.121094-15.121094h-130.910156c-2.613281 9.859376-4.644531 19.953126-6.070313 30.242188h136.980469c8.351563 0 15.121094-6.773438 15.121094-15.121094zm0 0" fill="#7d8aba"/><path d="m372.578125 291.28125c-8.351563 0-15.121094 6.773438-15.121094 15.121094 0 8.351562 6.769531 15.121094 15.121094 15.121094h130.910156c2.613281-9.859376 4.644531-19.953126 6.070313-30.242188zm0 0" fill="#c1d7f7"/><path d="m400.214844 157.582031c-24.027344 0-43.570313 19.546875-43.570313 43.574219 0 24.023438 19.542969 43.570312 43.570313 43.570312s43.574218-19.546874 43.574218-43.570312c0-24.027344-19.546874-43.574219-43.574218-43.574219zm0 0" fill="#7d8aba"/><path d="m400.214844 157.582031v87.144531c24.027344 0 43.574218-19.542968 43.574218-43.570312s-19.546874-43.574219-43.574218-43.574219zm0 0" fill="#485582"/><path d="m385.996094 263.234375c-24.027344 0-43.570313 19.546875-43.570313 43.570313 0 24.027343 19.542969 43.574218 43.570313 43.574218s43.574218-19.546875 43.574218-43.574218c0-24.023438-19.546874-43.570313-43.574218-43.570313zm0 0" fill="#7d8aba"/><path d="m385.996094 263.234375v87.144531c24.027344 0 43.574218-19.546875 43.574218-43.570312 0-24.027344-19.546874-43.574219-43.574218-43.574219zm0 0" fill="#485582"/><path d="m189.636719 352.792969c-24.027344 0-43.574219 19.546875-43.574219 43.570312 0 24.027344 19.546875 43.574219 43.574219 43.574219 24.023437 0 43.574219-19.546875 43.574219-43.574219 0-24.023437-19.550782-43.570312-43.574219-43.570312zm0 0" fill="#c1d7f7"/><path d="m189.636719 352.792969v87.144531c24.023437 0 43.574219-19.546875 43.574219-43.570312 0-24.027344-19.550782-43.574219-43.574219-43.574219zm0 0" fill="#7d8aba"/><path d="m111.785156 275.023438c-24.027344 0-43.574218 19.546874-43.574218 43.574218 0 24.023438 19.546874 43.570313 43.574218 43.570313 24.023438 0 43.570313-19.546875 43.570313-43.570313 0-24.027344-19.546875-43.574218-43.570313-43.574218zm0 0" fill="#c1d7f7"/><path d="m111.785156 275.023438v87.144531c24.023438 0 43.570313-19.546875 43.570313-43.570313 0-24.027344-19.546875-43.574218-43.570313-43.574218zm0 0" fill="#7d8aba"/><path d="m126.003906 161.621094c-24.027344 0-43.574218 19.546875-43.574218 43.570312 0 24.027344 19.546874 43.574219 43.574218 43.574219 24.023438 0 43.570313-19.546875 43.570313-43.574219 0-24.023437-19.546875-43.570312-43.570313-43.570312zm0 0" fill="#c1d7f7"/><path d="m126.003906 161.621094v87.144531c24.023438 0 43.570313-19.546875 43.570313-43.570313 0-24.027343-19.546875-43.574218-43.570313-43.574218zm0 0" fill="#7d8aba"/><path d="m334.011719 50.355469c-24.023438 0-43.570313 19.542969-43.570313 43.570312 0 24.027344 19.546875 43.570313 43.570313 43.570313 24.027343 0 43.574219-19.542969 43.574219-43.570313 0-24.027343-19.546876-43.570312-43.574219-43.570312zm0 0" fill="#7d8aba"/><path d="m334.011719 50.355469v87.144531c24.027343 0 43.574219-19.546875 43.574219-43.574219 0-24.023437-19.546876-43.570312-43.574219-43.570312zm0 0" fill="#485582"/></svg>