<svg id="Flat" enable-background="new 0 0 512 512" height="50" viewBox="0 0 512 512" width="50" xmlns="http://www.w3.org/2000/svg"><path d="m40 224c22.091 0 40 17.909 40 40v8h-32c-22.091 0-40-17.909-40-40v-8z" fill="#bde660"/><path d="m80 272h32c22.091 0 40-17.909 40-40v-8h-32c-22.091 0-40 17.909-40 40z" fill="#caeb80"/><path d="m40 296c22.091 0 40 17.909 40 40v8h-32c-22.091 0-40-17.909-40-40v-8z" fill="#bde660"/><path d="m80 344h32c22.091 0 40-17.909 40-40v-8h-32c-22.091 0-40 17.909-40 40z" fill="#caeb80"/><path d="m40 152c22.091 0 40 17.909 40 40v8h-32c-22.091 0-40-17.909-40-40v-8z" fill="#bde660"/><path d="m80 200h32c22.091 0 40-17.909 40-40v-8h-32c-22.091 0-40 17.909-40 40z" fill="#caeb80"/><path d="m72 136h16v264h-16z" fill="#a8cc55"/><path d="m216 224c22.091 0 40 17.909 40 40v8h-32c-22.091 0-40-17.909-40-40v-8z" fill="#bde660"/><path d="m256 272h32c22.091 0 40-17.909 40-40v-8h-32c-22.091 0-40 17.909-40 40z" fill="#caeb80"/><path d="m216 296c22.091 0 40 17.909 40 40v8h-32c-22.091 0-40-17.909-40-40v-8z" fill="#bde660"/><path d="m256 344h32c22.091 0 40-17.909 40-40v-8h-32c-22.091 0-40 17.909-40 40z" fill="#caeb80"/><path d="m248 208h16v192h-16z" fill="#a8cc55"/><path d="m392 296c22.091 0 40 17.909 40 40v8h-32c-22.091 0-40-17.909-40-40v-8z" fill="#bde660"/><path d="m432 344h32c22.091 0 40-17.909 40-40v-8h-32c-22.091 0-40 17.909-40 40z" fill="#caeb80"/><path d="m424 280h16v120h-16z" fill="#a8cc55"/><path d="m0 392h512v104h-512z" fill="#e0a23a"/><g fill="#fcb641"><path d="m0 392h512v24h-512z"/><path d="m32 448h88v16h-88z"/><path d="m136 456h16v16h-16z"/><path d="m192 464h88v16h-88z"/><path d="m296 456h16v16h-16z"/><path d="m360 448h88v16h-88z"/><path d="m464 456h16v16h-16z"/><path d="m192 432h16v16h-16z"/><path d="m320 424h16v16h-16z"/></g><circle cx="400" cy="104" fill="#ff7b66" r="56"/><path d="m392 16h16v16h-16z" fill="#ff7b66"/><path d="m392 176h16v16h-16z" fill="#ff7b66"/><path d="m335.431 39.431h16v16h-16z" fill="#ff7b66" transform="matrix(.707 -.707 .707 .707 67.045 256.729)"/><path d="m448.569 152.569h16v16h-16z" fill="#ff7b66" transform="matrix(.707 -.707 .707 .707 20.182 369.863)"/><path d="m335.431 152.568h16v16h-16z" fill="#ff7b66" transform="matrix(.707 -.707 .707 .707 -12.945 289.887)"/><path d="m448.569 39.431h16v16h-16z" fill="#ff7b66" transform="matrix(.707 -.707 .707 .707 100.199 336.751)"/><path d="m312 96h16v16h-16z" fill="#ff7b66"/><path d="m472 96h16v16h-16z" fill="#ff7b66"/></svg>