<svg height="40pt" viewBox="-22 0 511 512" width="40pt" xmlns="http://www.w3.org/2000/svg"><path d="m275.503906 154.101562h30v342.898438h-30zm0 0" fill="#f7daa1"/><path d="m290.503906 154.101562h15v342.898438h-15zm0 0" fill="#f4b978"/><path d="m142.003906 184.328125h30v312.671875h-30zm0 0" fill="#f7daa1"/><path d="m157.003906 184.328125h15v276.671875h-15zm0 0" fill="#f4b978"/><path d="m205.925781 75.238281v79.089844c0 24.820313-20.191406 45-45 45h-7.832031c-24.820312 0-45-20.179687-45-45v-79.089844c0-24.808593 20.179688-45 45-45h7.832031c24.808594 0 45 20.191407 45 45zm0 0" fill="#ff7815"/><path d="m205.925781 75.238281v79.089844c0 24.820313-20.191406 45-45 45h-3.921875v-169.089844h3.921875c24.808594 0 45 20.191407 45 45zm0 0" fill="#fe4b00"/><path d="m339.425781 45v79.101562c0 24.808594-20.191406 45-45 45h-7.832031c-24.820312 0-45-20.191406-45-45v-79.101562c0-24.808594 20.179688-45 45-45h7.832031c24.808594 0 45 20.191406 45 45zm0 0" fill="#ff7815"/><path d="m82.667969 231.117188-12.15625 280.882812h291.941406zm0 0" fill="#00ab01"/><path d="m382.273438 512h-298.480469l141.382812-306.621094zm0 0" fill="#60d94d"/><path d="m160.3125 512h263.816406l43.441406-219.164062zm0 0" fill="#00b863"/><path d="m.5 286.058594 32.320312 225.941406h298.402344zm0 0" fill="#b5f94b"/><path d="m382.273438 512h-157.097657v-306.621094zm0 0" fill="#00b863"/><path d="m121.265625 512h236.207031l36.410156-277.761719zm0 0" fill="#007f40"/><path d="m339.425781 45v79.101562c0 24.808594-20.191406 45-45 45h-3.921875v-169.101562h3.921875c24.808594 0 45 20.191406 45 45zm0 0" fill="#fe4b00"/><path d="m225.175781 512v-105.867188l-103.910156 105.867188zm0 0" fill="#00ab01"/></svg>