<?xml version="1.0" encoding="iso-8859-1"?>
<!-- Generator: Adobe Illustrator 19.0.0, SVG Export Plug-In . SVG Version: 6.00 Build 0)  -->
<svg version="1.1" id="Capa_1" xmlns="http://www.w3.org/2000/svg" xmlns:xlink="http://www.w3.org/1999/xlink" x="0px" y="0px"
	height="40pt" viewBox="0 0 512.005 512.005" width="40pt" style="enable-background:new 0 0 512.005 512.005;" xml:space="preserve">
<path style="fill:#303C42;" d="M320.003,512.005c-105.865,0-192-86.135-192-192c0-148.365,177.302-310.417,184.844-317.24
	c4.063-3.688,10.25-3.688,14.313,0c7.542,6.823,184.844,168.875,184.844,317.24C512.003,425.87,425.867,512.005,320.003,512.005z"/>
<path style="fill:#BBDEFB;" d="M320.003,25.339c-33.219,32.021-170.667,171.958-170.667,294.667
	c0,94.104,76.563,170.667,170.667,170.667s170.667-76.563,170.667-170.667C490.669,197.203,353.242,57.349,320.003,25.339z"/>
<path style="opacity:0.1;enable-background:new    ;" d="M320.003,25.339c-0.042,0.04-0.107,0.105-0.15,0.147
	c43.283,57.268,85.483,130.477,85.483,198.52c0,94.104-76.563,170.667-170.667,170.667c-27.078,0-52.609-6.508-75.376-17.78
	c23.504,66.177,86.574,113.78,160.71,113.78c94.104,0,170.667-76.563,170.667-170.667
	C490.669,197.203,353.242,57.349,320.003,25.339z"/>
<g>
	<path style="fill:#303C42;" d="M194.638,256.005c-18.688,0-28.719-6.969-36.771-12.573c-7.042-4.896-12.604-8.76-24.604-8.76
		c-11.979,0-17.531,3.865-24.563,8.75c-8.052,5.604-18.083,12.583-36.76,12.583c-18.667,0-28.688-6.979-36.729-12.583
		c-7.021-4.885-12.573-8.75-24.542-8.75c-5.896,0-10.667-4.771-10.667-10.667c0-5.896,4.771-10.667,10.667-10.667
		c18.667,0,28.688,6.979,36.729,12.583c7.021,4.885,12.573,8.75,24.542,8.75c11.99,0,17.542-3.865,24.573-8.76
		c8.052-5.604,18.073-12.573,36.75-12.573c18.688,0,28.719,6.969,36.781,12.573c7.031,4.896,12.594,8.76,24.594,8.76
		c11.99,0,17.552-3.865,24.583-8.76c8.063-5.604,18.094-12.573,36.781-12.573c5.896,0,10.667,4.771,10.667,10.667
		c0,5.896-4.771,10.667-10.667,10.667c-12,0-17.563,3.865-24.594,8.76C223.346,249.036,213.315,256.005,194.638,256.005z"/>
	<path style="fill:#303C42;" d="M194.638,448.005c-18.688,0-28.719-6.969-36.771-12.573c-7.042-4.896-12.604-8.76-24.604-8.76
		c-11.979,0-17.531,3.865-24.563,8.75c-8.052,5.604-18.083,12.583-36.76,12.583c-18.667,0-28.688-6.979-36.729-12.583
		c-7.021-4.885-12.573-8.75-24.542-8.75c-5.896,0-10.667-4.771-10.667-10.667s4.771-10.667,10.667-10.667
		c18.667,0,28.688,6.979,36.729,12.583c7.021,4.885,12.573,8.75,24.542,8.75c11.99,0,17.542-3.865,24.573-8.76
		c8.052-5.604,18.073-12.573,36.75-12.573c18.688,0,28.719,6.969,36.781,12.573c7.031,4.896,12.594,8.76,24.594,8.76
		c11.99,0,17.552-3.865,24.583-8.76c8.063-5.604,18.094-12.573,36.781-12.573c5.896,0,10.667,4.771,10.667,10.667
		s-4.771,10.667-10.667,10.667c-12,0-17.563,3.865-24.594,8.76C223.346,441.036,213.315,448.005,194.638,448.005z"/>
	<path style="fill:#303C42;" d="M71.94,384.005c-18.667,0-28.688-6.979-36.729-12.583c-7.021-4.885-12.573-8.75-24.542-8.75
		c-5.896,0-10.667-4.771-10.667-10.667s4.771-10.667,10.667-10.667c18.667,0,28.688,6.979,36.729,12.583
		c7.021,4.885,12.573,8.75,24.542,8.75c5.896,0,10.667,4.771,10.667,10.667C82.607,379.234,77.836,384.005,71.94,384.005z"/>
	<path style="fill:#303C42;" d="M320.003,384.005c-18.438,0-28.698-6.563-37.75-12.344c-7.844-5.021-14.052-8.99-26.25-8.99
		c-12,0-17.563,3.865-24.594,8.76c-8.063,5.604-18.094,12.573-36.771,12.573c-18.688,0-28.719-6.969-36.781-12.573
		c-7.031-4.896-12.594-8.76-24.594-8.76c-5.896,0-10.667-4.771-10.667-10.667s4.771-10.667,10.667-10.667
		c18.688,0,28.719,6.969,36.771,12.573c7.042,4.896,12.604,8.76,24.604,8.76c11.99,0,17.552-3.865,24.583-8.76
		c8.063-5.604,18.094-12.573,36.781-12.573c18.438,0,28.698,6.563,37.75,12.344c7.844,5.021,14.052,8.99,26.25,8.99
		c5.896,0,10.667,4.771,10.667,10.667C330.669,379.234,325.898,384.005,320.003,384.005z"/>
	<path style="fill:#303C42;" d="M71.94,320.005c-18.667,0-28.688-6.979-36.729-12.583c-7.021-4.885-12.573-8.75-24.542-8.75
		c-5.896,0-10.667-4.771-10.667-10.667s4.771-10.667,10.667-10.667c18.667,0,28.688,6.979,36.729,12.583
		c7.021,4.885,12.573,8.75,24.542,8.75c11.99,0,17.542-3.865,24.573-8.76c8.052-5.604,18.073-12.573,36.75-12.573
		c5.896,0,10.667,4.771,10.667,10.667s-4.771,10.667-10.667,10.667c-11.979,0-17.531,3.865-24.563,8.75
		C100.648,313.026,90.617,320.005,71.94,320.005z"/>
	<path style="fill:#303C42;" d="M317.273,320.005c-18.667,0-28.688-6.979-36.729-12.583c-7.021-4.885-12.573-8.75-24.542-8.75
		c-12,0-17.563,3.865-24.594,8.76c-8.063,5.604-18.094,12.573-36.771,12.573c-5.896,0-10.667-4.771-10.667-10.667
		c0-5.896,4.771-10.667,10.667-10.667c11.99,0,17.552-3.865,24.583-8.76c8.063-5.604,18.094-12.573,36.781-12.573
		c18.667,0,28.688,6.979,36.729,12.583c7.021,4.885,12.573,8.75,24.542,8.75c11.99,0,17.542-3.865,24.573-8.76
		c8.052-5.604,18.073-12.573,36.75-12.573c5.896,0,10.667,4.771,10.667,10.667s-4.771,10.667-10.667,10.667
		c-11.979,0-17.531,3.865-24.563,8.75C345.982,313.026,335.951,320.005,317.273,320.005z"/>
</g>
<linearGradient id="SVGID_1_" gradientUnits="userSpaceOnUse" x1="-45.1675" y1="639.3859" x2="-22.924" y2="629.0136" gradientTransform="matrix(21.3333 0 0 -21.3333 996.2804 13791.7256)">
	<stop  offset="0" style="stop-color:#FFFFFF;stop-opacity:0.2"/>
	<stop  offset="1" style="stop-color:#FFFFFF;stop-opacity:0"/>
</linearGradient>
<path style="fill:url(#SVGID_1_);" d="M10.669,362.672c11.969,0,17.521,3.865,24.542,8.75c8.042,5.604,18.063,12.583,36.729,12.583
	c5.896,0,10.667-4.771,10.667-10.667c0-5.896-4.771-10.667-10.667-10.667c-11.969,0-17.521-3.865-24.542-8.75
	c-8.042-5.604-18.062-12.583-36.729-12.583c-5.896,0-10.667,4.771-10.667,10.667S4.773,362.672,10.669,362.672z M327.159,2.766
	c-4.063-3.688-10.25-3.688-14.313,0c-5.79,5.238-111.408,102.034-160.263,213.827c-5.31-1.861-11.422-3.254-19.32-3.254
	c-18.677,0-28.698,6.969-36.75,12.573c-7.031,4.896-12.583,8.76-24.573,8.76c-11.969,0-17.521-3.865-24.542-8.75
	c-8.042-5.604-18.062-12.583-36.729-12.583c-5.896,0-10.667,4.771-10.667,10.667c0,5.896,4.771,10.667,10.667,10.667
	c11.969,0,17.521,3.865,24.542,8.75c8.042,5.604,18.063,12.583,36.729,12.583c18.677,0,28.708-6.979,36.76-12.583
	c7.031-4.885,12.583-8.75,24.563-8.75c4.54,0,7.996,0.684,11.122,1.637c-4.991,13.577-8.611,27.311-11.43,41.059
	c-18.456,0.086-28.44,6.974-36.443,12.544c-7.031,4.896-12.583,8.76-24.573,8.76c-11.969,0-17.521-3.865-24.542-8.75
	c-8.042-5.604-18.062-12.583-36.729-12.583c-5.896,0-10.667,4.771-10.667,10.667s4.771,10.667,10.667,10.667
	c11.969,0,17.521,3.865,24.542,8.75c8.042,5.604,18.063,12.583,36.729,12.583c18.677,0,28.708-6.979,36.76-12.583
	c6.194-4.305,11.496-7.652,20.801-8.427c-0.747,7.017-1.499,14.036-1.499,21.01c0,7.49,0.539,14.846,1.378,22.116
	c-3.962,1.556-6.784,5.366-6.784,9.884c0,5.777,4.6,10.411,10.333,10.599c3.608,15.837,9.167,30.915,16.431,45.007
	c-4.625-1.292-9.723-2.272-16.098-2.272c-18.677,0-28.698,6.969-36.75,12.573c-7.031,4.896-12.583,8.76-24.573,8.76
	c-11.969,0-17.521-3.865-24.542-8.75c-8.042-5.604-18.062-12.583-36.729-12.583c-5.896,0-10.667,4.771-10.667,10.667
	s4.771,10.667,10.667,10.667c11.969,0,17.521,3.865,24.542,8.75c8.042,5.604,18.063,12.583,36.729,12.583
	c18.677,0,28.708-6.979,36.76-12.583c7.031-4.885,12.583-8.75,24.563-8.75c12,0,17.563,3.865,24.604,8.76
	c4.375,3.044,9.493,6.395,16.107,8.909c35.245,41.331,87.585,67.664,146.029,67.664c105.865,0,192-86.135,192-192
	C512.003,171.641,334.701,9.589,327.159,2.766z"/>
<g>
</g>
<g>
</g>
<g>
</g>
<g>
</g>
<g>
</g>
<g>
</g>
<g>
</g>
<g>
</g>
<g>
</g>
<g>
</g>
<g>
</g>
<g>
</g>
<g>
</g>
<g>
</g>
<g>
</g>
</svg>
