<?xml version="1.0" encoding="iso-8859-1"?>
<!-- Generator: Adobe Illustrator 19.0.0, SVG Export Plug-In . SVG Version: 6.00 Build 0)  -->
<svg version="1.1" id="Capa_1" xmlns="http://www.w3.org/2000/svg" xmlns:xlink="http://www.w3.org/1999/xlink" x="0px" y="0px"
	 viewBox="0 0 464.006 464.006" style="enable-background:new 0 0 464.006 464.006;" xml:space="preserve">
<g>
	<path style="fill:#6A9923;" d="M248,280.003h-16l0,0c0-44.183,35.817-80,80-80h16l0,0C328,244.186,292.183,280.003,248,280.003z"/>
	<path style="fill:#6A9923;" d="M248,168.003h-16l0,0c0-44.183,35.817-80,80-80h16l0,0C328,132.186,292.183,168.003,248,168.003z"/>
	<path style="fill:#6A9923;" d="M232,56.003h16c30.928,0,56-25.072,56-56h-16C257.072,0.003,232,25.075,232,56.003z"/>
</g>
<path style="fill:#F2BB80;" d="M136.488,302.083l-0.488-0.28l-56.104-62.336c-8.325-9.222-22.55-9.949-31.773-1.624
	c-0.041,0.037-0.082,0.075-0.123,0.112V121.363c0.287-13.115-9.645-24.205-22.712-25.36c-13.236-0.711-24.542,9.442-25.253,22.677
	c-0.024,0.44-0.035,0.882-0.035,1.323v151.416c-0.003,10.877,2.77,21.574,8.056,31.08L80,432.003v32h112v-66.2
	C191.997,358.251,170.816,321.729,136.488,302.083z"/>
<g>
	<path style="fill:#88B337;" d="M232,360.003c-4.418,0-8-3.582-8-8v-304c0-4.418,3.582-8,8-8s8,3.582,8,8v304
		C240,356.421,236.418,360.003,232,360.003z"/>
	<path style="fill:#88B337;" d="M136,200.003h16c44.183,0,80,35.817,80,80l0,0h-16C171.817,280.003,136,244.186,136,200.003
		L136,200.003z"/>
	<path style="fill:#88B337;" d="M136,88.003h16c44.183,0,80,35.817,80,80l0,0h-16C171.817,168.003,136,132.186,136,88.003
		L136,88.003z"/>
	<path style="fill:#88B337;" d="M232,56.003h-16c-30.928,0-56-25.072-56-56h16C206.928,0.003,232,25.075,232,56.003z"/>
</g>
<path style="fill:#E8A16D;" d="M111.408,349.803c-2.254,0.001-4.403-0.949-5.92-2.616l-65.544-72.096
	c-10.985-12.057-10.544-30.621,1-42.144c3.178-3.07,8.242-2.982,11.312,0.196c2.995,3.1,2.995,8.016,0,11.116
	c-5.495,5.49-5.703,14.33-0.472,20.072l65.536,72.088c2.974,3.268,2.735,8.328-0.533,11.301
	C115.315,349.059,113.398,349.802,111.408,349.803L111.408,349.803z"/>
<path style="fill:#F2BB80;" d="M272,397.803v66.2h112v-32l71.944-129.504c5.286-9.506,8.059-20.203,8.056-31.08V121.363
	c0.287-13.115-9.645-24.205-22.712-25.36c-13.236-0.711-24.542,9.442-25.253,22.677c-0.024,0.44-0.035,0.882-0.035,1.323v117.952
	c-9.16-8.393-23.39-7.772-31.784,1.389c-0.038,0.041-0.075,0.082-0.112,0.123L328,301.803l-0.488,0.28
	C293.184,321.729,272.003,358.251,272,397.803L272,397.803z"/>
<path style="fill:#E8A16D;" d="M352.592,349.803c2.254,0.001,4.403-0.949,5.92-2.616l65.544-72.096
	c10.985-12.057,10.544-30.621-1-42.144c-3.178-3.07-8.242-2.982-11.312,0.196c-2.995,3.1-2.995,8.016,0,11.116
	c5.495,5.49,5.703,14.33,0.472,20.072l-65.536,72.088c-2.974,3.268-2.735,8.328,0.533,11.301
	C348.685,349.059,350.602,349.802,352.592,349.803L352.592,349.803z"/>
<g>
</g>
<g>
</g>
<g>
</g>
<g>
</g>
<g>
</g>
<g>
</g>
<g>
</g>
<g>
</g>
<g>
</g>
<g>
</g>
<g>
</g>
<g>
</g>
<g>
</g>
<g>
</g>
<g>
</g>
</svg>
